<?xml version="1.0" encoding="UTF-8" standalone="no"?>
<!DOCTYPE svg PUBLIC "-//W3C//DTD SVG 1.1//EN" "http://www.w3.org/Graphics/SVG/1.1/DTD/svg11.dtd">
<svg width="100%" height="100%" viewBox="0 0 501 248" version="1.1" xmlns="http://www.w3.org/2000/svg" xmlns:xlink="http://www.w3.org/1999/xlink" xml:space="preserve" xmlns:serif="http://www.serif.com/" style="fill-rule:evenodd;clip-rule:evenodd;stroke-linejoin:round;stroke-miterlimit:2;">
    <g transform="matrix(1,0,0,1,-2474,384)">
        <g id="CarIcon" transform="matrix(0.297918,0,0,0.297918,1526.94,-55.8795)">
            <g transform="matrix(1,0,0,1,0.648195,-1145.1)">
                <path d="M3817.93,490.234C3839.24,489.762 3986.4,452.454 3970.17,811.723C3967.09,879.944 3807.89,907.646 3762.65,824.481C3698.4,706.393 3735.4,492.062 3817.93,490.234Z" style="fill:white;"/>
            </g>
            <g transform="matrix(0.710386,0,0,0.81185,568.898,-1127.72)">
                <path d="M3817.93,490.234C3839.24,489.762 3986.4,452.454 3970.17,811.723C3967.09,879.944 3807.89,907.646 3762.65,824.481C3698.4,706.393 3735.4,492.062 3817.93,490.234Z" style="fill:white;"/>
            </g>
            <g transform="matrix(1,0,0,1,0.648195,-1145.1)">
                <path d="M3820.41,493.233C3843.13,492.685 3891.24,558.208 3906.36,779.175C3906.36,779.175 3912.51,796.377 3924.01,801.624C3935.51,806.872 4045.14,804.005 4084.75,801.624C4111.15,800.037 4196.76,779.795 4230.57,779.175C4264.38,778.556 4747.02,743.302 4792.22,740.149C4837.42,736.995 4855.29,711.767 4855.29,711.767C4855.29,711.767 4853.01,632.269 4855.29,627.447C4857.57,622.624 4858.95,619.869 4858.95,619.869C4858.95,619.869 4860.36,543.313 4850.6,533.558L4821.67,481.419C4821.67,481.419 4818.98,465.245 4817.97,461.727C4816.96,458.209 4793.75,392.951 4783.66,382.859C4773.57,372.768 4760.45,346.53 4667.27,330.048L4657.7,328.36C4657.7,328.36 4549.1,275.653 4518.83,273.971C4488.56,272.289 4443.48,236.633 4443.48,236.633C4443.48,236.633 4230.96,75.78 4166.05,64.385C4166.05,64.385 3935.09,36.486 3739.51,50.152C3626.6,58.041 3630.08,51.59 3602.52,54.389C3574.96,57.187 3392.22,51.646 3275.93,220.779C3275.93,220.779 3239.78,236.582 3225.36,249.558C3210.35,263.059 3198.16,278.13 3193.12,299.695C3191.26,307.622 3189.02,349.32 3189.02,349.32C3189.02,349.32 3191.04,400.076 3183.29,414.5C3175.54,428.924 3187.4,541.814 3190.43,548.878C3193.45,555.942 3217,603.708 3221.71,607.744C3221.71,607.744 3212.96,425.813 3265.77,418.026C3265.77,418.026 3309.68,458.778 3317.57,607.132C3317.57,607.132 3319.4,655.896 3349.37,657.101C3387.74,658.645 3571.78,705.776 3571.78,705.776L3728.72,756.045L3736.8,754.968C3736.8,754.968 3703.35,496.059 3820.41,493.233Z" style="fill:white;"/>
            </g>
            <g transform="matrix(1,0,0,1,0.648195,-1145.1)">
                <path d="M3900.55,422.489C3912.26,411.36 4100.98,437.386 4100.98,437.386C4100.98,437.386 4142.96,443.735 4185.99,492.057L4242.78,542.144L4242.48,548.492C4242.48,548.492 4056.63,541.702 3956.71,512.306C3931.6,504.917 3893.39,429.291 3900.55,422.489Z" style="fill:rgb(245,49,52);"/>
            </g>
            <g transform="matrix(1,0,0,1,0.648195,-1145.1)">
                <path d="M4787.87,388.974C4787.87,388.974 4826.24,465.546 4819.18,480.36C4819.18,480.36 4767.96,510.796 4754.96,511.759C4754.96,511.759 4733.29,516.672 4724.52,514.938C4724.52,514.938 4741.08,443.46 4743.56,414.353C4743.91,410.313 4782.27,393.766 4787.87,388.974Z" style="fill:rgb(245,49,52);"/>
            </g>
            <g transform="matrix(1,0,0,1,0.648195,-1145.1)">
                <path d="M3682.48,106.234C3681.96,104.376 3682.32,102.384 3683.45,100.822C3684.58,99.259 3686.36,98.296 3688.28,98.206C3742.69,95.623 4061.27,81.054 4183.76,87.868C4206.77,89.147 4228.95,96.899 4247.74,110.229C4302.06,148.847 4422.94,236.83 4426.89,257.777C4426.89,257.777 3776.14,287.425 3739.78,275.943C3739.78,275.943 3706.56,223.964 3701.6,189.476C3697.75,162.733 3687.08,122.814 3682.48,106.234Z" style="fill:rgb(245,49,52);"/>
            </g>
            <g transform="matrix(1,0,0,1,0.648195,-1145.1)">
                <path d="M4555.68,758.875L4776.02,741.456C4776.02,741.456 4757.21,802.241 4664.11,804.597C4573,806.903 4555.68,758.875 4555.68,758.875Z" style="fill:white;"/>
            </g>
        </g>
    </g>
</svg>
