<?xml version="1.0" encoding="UTF-8" standalone="no"?><!DOCTYPE svg PUBLIC "-//W3C//DTD SVG 1.1//EN" "http://www.w3.org/Graphics/SVG/1.1/DTD/svg11.dtd"><svg width="100%" height="100%" viewBox="0 0 501 248" version="1.1" xmlns="http://www.w3.org/2000/svg" xmlns:xlink="http://www.w3.org/1999/xlink" xml:space="preserve" xmlns:serif="http://www.serif.com/" style="fill-rule:evenodd;clip-rule:evenodd;stroke-linejoin:round;stroke-miterlimit:2;"><g id="CarIconAlt"><path d="M190.514,132.431c6.348,-0.141 50.19,-11.255 45.355,95.777c-0.918,20.325 -48.345,28.578 -61.824,3.801c-19.139,-35.18 -8.118,-99.033 16.469,-99.578Z" style="fill:#f53134;"/><path d="M30.39,110.128c4.51,-0.114 35.654,-9.137 32.22,77.757c-0.652,16.5 -34.344,23.201 -43.92,3.086c-13.596,-28.561 -5.767,-80.401 11.7,-80.843Z" style="fill:#f53134;"/><path d="M191.254,133.324c6.768,-0.163 21.101,19.358 25.604,85.188c0,-0 1.832,5.124 5.259,6.688c3.428,1.563 36.088,0.709 47.888,-0c7.864,-0.473 33.371,-6.504 43.442,-6.688c10.072,-0.185 153.86,-10.687 167.326,-11.627c13.466,-0.939 18.79,-8.455 18.79,-8.455c0,-0 -0.68,-23.684 0,-25.121c0.68,-1.437 1.091,-2.257 1.091,-2.257c-0,-0 0.418,-22.808 -2.489,-25.714l-8.618,-15.533c0,-0 -0.802,-4.819 -1.102,-5.867c-0.301,-1.048 -7.216,-20.489 -10.222,-23.496c-3.006,-3.006 -6.915,-10.823 -34.674,-15.733l-2.852,-0.503c-0,-0 -32.353,-15.702 -41.372,-16.204c-9.019,-0.501 -22.448,-11.123 -22.448,-11.123c-0,-0 -63.313,-47.921 -82.651,-51.316c-0,0 -68.807,-8.311 -127.074,-4.24c-33.638,2.35 -32.603,0.428 -40.812,1.262c-8.21,0.834 -62.652,-0.817 -97.296,49.57c0,0 -10.772,4.709 -15.068,8.574c-4.47,4.022 -8.103,8.513 -9.605,14.937c-0.552,2.362 -1.221,14.784 -1.221,14.784c-0,0 0.604,15.121 -1.705,19.419c-2.309,4.297 1.223,37.929 2.124,40.033c0.902,2.105 7.917,16.335 9.32,17.537c0,0 -2.605,-54.2 13.128,-56.52c0,-0 13.081,12.141 15.43,56.338c-0,0 0.547,14.528 9.475,14.887c11.432,0.46 66.261,14.501 66.261,14.501l46.756,14.976l2.405,-0.321c-0,0 -9.964,-77.134 24.91,-77.976Z" style="fill:#f53134;"/><path d="M215.127,112.249c3.489,-3.316 59.715,4.438 59.715,4.438c-0,-0 12.504,1.891 25.324,16.287l16.918,14.922l-0.09,1.891c0,0 -55.367,-2.023 -85.134,-10.78c-7.482,-2.202 -18.866,-24.732 -16.733,-26.758Z" style="fill:#fff;"/><path d="M479.476,102.264c-0,-0 11.431,22.812 9.329,27.225c0,0 -15.259,9.068 -19.133,9.355c0,-0 -6.456,1.463 -9.067,0.947c-0,-0 4.931,-21.295 5.672,-29.966c0.102,-1.204 11.532,-6.133 13.199,-7.561Z" style="fill:#fff;"/><path d="M150.16,18.031c-0.154,-0.554 -0.048,-1.147 0.289,-1.613c0.337,-0.465 0.867,-0.752 1.441,-0.779c16.209,-0.77 111.12,-5.11 147.613,-3.08c6.854,0.381 13.461,2.69 19.06,6.662c16.182,11.505 52.195,37.716 53.372,43.957c0,-0 -193.871,8.833 -204.703,5.412c0,-0 -9.896,-15.486 -11.375,-25.76c-1.147,-7.967 -4.326,-19.86 -5.697,-24.799Z" style="fill:#fff;"/><path d="M410.303,212.464l65.643,-5.189c-0,-0 -5.602,18.109 -33.341,18.811c-27.142,0.686 -32.302,-13.622 -32.302,-13.622Z" style="fill:#f53134;"/></g></svg>