<?xml version="1.0" encoding="UTF-8" standalone="no"?><!DOCTYPE svg PUBLIC "-//W3C//DTD SVG 1.1//EN" "http://www.w3.org/Graphics/SVG/1.1/DTD/svg11.dtd"><svg width="100%" height="100%" viewBox="0 0 675 675" version="1.1" xmlns="http://www.w3.org/2000/svg" xmlns:xlink="http://www.w3.org/1999/xlink" xml:space="preserve" xmlns:serif="http://www.serif.com/" style="fill-rule:evenodd;clip-rule:evenodd;stroke-linejoin:round;stroke-miterlimit:2;"><g id="Logo"><path d="M674.668,162.48L674.668,512.79C674.668,602.025 602.221,674.472 512.986,674.472L162.676,674.472C73.441,674.472 0.994,602.025 0.994,512.79L0.994,162.48C0.994,73.245 73.441,0.798 162.676,0.798L512.986,0.798C602.221,0.798 674.668,73.245 674.668,162.48Z" style="fill:#f53134;"/><g id="concept2Final"><path d="M256.542,186.074C242.493,284.657 226.871,383.081 209.7,481.312C197.447,473.056 181.198,469.687 165.746,469.687C148.546,469.687 131.188,473.745 116.499,481.312C148.716,367.139 177.774,252.329 203.543,136.994C244.139,136.994 284.735,136.994 325.332,136.994C372.119,136.994 420.709,141.32 461.867,161.604C494.913,177.89 518.207,205.952 525.273,237.68C531.053,263.636 523.146,290.084 499.144,307.831C470.817,328.774 433.682,339.917 397.177,345.646C443.904,389.22 493.467,430.605 545.032,470.09C541.431,469.733 537.806,469.552 534.181,469.552C510.542,469.552 479.759,479.084 474.467,501.107C420.58,455.705 369.417,407.945 322.175,357.529C318.744,353.868 316.783,349.256 317.083,344.566C317.127,343.891 317.17,343.215 317.213,342.54C318.35,324.747 334.16,313.411 354.428,311.382C367.345,310.083 380.185,306.65 392.469,303.15C425.909,293.623 472.347,273.146 467.214,237.68C463.925,214.96 436.659,202.38 413.448,196.039C388.735,189.286 362.756,186.722 336.922,185.461C310.157,184.155 283.266,184.169 256.542,186.074Z" style="fill:#fff;"/><path d="M163.048,481.539C181.515,481.539 208.017,491.026 204.619,510.122C201.147,529.634 172.362,538.258 152.098,538.277C133.841,538.293 102.383,530.726 108.298,510.122C113.766,491.078 142.116,481.539 163.048,481.539Z" style="fill:#fff;"/><path d="M536.565,481.403C557.287,481.403 585.581,490.914 590.527,509.983C595.831,530.435 564.559,537.77 546.428,537.787C526.408,537.805 497.172,529.625 494.221,509.983C491.346,490.844 518.003,481.403 536.565,481.403ZM540.22,499.435C533.309,499.435 523.168,502.905 524.499,510.122C525.859,517.491 536.934,520.882 544.613,520.882C551.54,520.882 561.956,517.455 560.306,510.122C558.681,502.904 547.913,499.435 540.22,499.435Z" style="fill:#fff;"/></g></g></svg>