<?xml version="1.0" encoding="UTF-8" standalone="no"?><!DOCTYPE svg PUBLIC "-//W3C//DTD SVG 1.1//EN" "http://www.w3.org/Graphics/SVG/1.1/DTD/svg11.dtd"><svg width="634px" height="670px" version="1.1" xmlns="http://www.w3.org/2000/svg" xmlns:xlink="http://www.w3.org/1999/xlink" xml:space="preserve" xmlns:serif="http://www.serif.com/" style="fill-rule:evenodd;clip-rule:evenodd;stroke-linejoin:round;stroke-miterlimit:2;"><path id="searchicon" d="M381.599,432.743C341.947,461.877 293.005,479.093 240.075,479.093C107.959,479.093 0.698,371.832 0.698,239.717C0.698,107.601 107.959,0.34 240.075,0.34C372.19,0.34 479.451,107.601 479.451,239.717C479.451,300.912 456.438,356.775 418.602,399.116L626.528,628.073C635.804,638.288 635.043,654.112 624.828,663.388C614.614,672.664 598.79,671.902 589.514,661.688L381.599,432.743ZM384.761,361.852C412.638,328.87 429.451,286.241 429.451,239.717C429.451,135.197 344.594,50.34 240.075,50.34C135.555,50.34 50.698,135.197 50.698,239.717C50.698,344.237 135.555,429.093 240.075,429.093C280.065,429.093 317.176,416.671 347.758,395.479C361.527,385.937 373.973,374.617 384.761,361.852Z" style="fill:rgb(245,49,52);"/></svg>