<?xml version="1.0" encoding="UTF-8" standalone="no"?>
<!DOCTYPE svg PUBLIC "-//W3C//DTD SVG 1.1//EN" "http://www.w3.org/Graphics/SVG/1.1/DTD/svg11.dtd">
<svg width="100%" height="100%" viewBox="0 0 201 213" version="1.1" xmlns="http://www.w3.org/2000/svg" xmlns:xlink="http://www.w3.org/1999/xlink" xml:space="preserve" xmlns:serif="http://www.serif.com/" style="fill-rule:evenodd;clip-rule:evenodd;stroke-linejoin:round;stroke-miterlimit:2;">
    <g transform="matrix(1,0,0,1,-2289,40)">
        <g id="searchicon" transform="matrix(0.316297,0,0,0.316297,1565.47,335.361)">
            <path d="M2670.6,-753.257C2630.95,-724.123 2582.01,-706.907 2529.08,-706.907C2396.96,-706.907 2289.7,-814.168 2289.7,-946.283C2289.7,-1078.4 2396.96,-1185.66 2529.08,-1185.66C2661.19,-1185.66 2768.45,-1078.4 2768.45,-946.283C2768.45,-885.088 2745.44,-829.225 2707.6,-786.884L2915.53,-557.927C2924.8,-547.712 2924.04,-531.888 2913.83,-522.612C2903.61,-513.336 2887.79,-514.098 2878.51,-524.312L2670.6,-753.257ZM2673.76,-824.148C2701.64,-857.13 2718.45,-899.759 2718.45,-946.283C2718.45,-1050.8 2633.59,-1135.66 2529.08,-1135.66C2424.55,-1135.66 2339.7,-1050.8 2339.7,-946.283C2339.7,-841.763 2424.55,-756.907 2529.08,-756.907C2569.07,-756.907 2606.18,-769.329 2636.76,-790.521C2650.53,-800.063 2662.97,-811.383 2673.76,-824.148Z" style="fill:white;"/>
        </g>
    </g>
</svg>
