<?xml version="1.0" encoding="UTF-8" standalone="no"?>
<!DOCTYPE svg PUBLIC "-//W3C//DTD SVG 1.1//EN" "http://www.w3.org/Graphics/SVG/1.1/DTD/svg11.dtd">
<svg width="100%" height="100%" viewBox="0 0 34 33" version="1.1" xmlns="http://www.w3.org/2000/svg" xmlns:xlink="http://www.w3.org/1999/xlink" xml:space="preserve" xmlns:serif="http://www.serif.com/" style="fill-rule:evenodd;clip-rule:evenodd;stroke-linejoin:round;stroke-miterlimit:2;">
    <g transform="matrix(1,0,0,1,-3031,-871)">
        <g id="SettingsNavIcon" transform="matrix(0.0822673,0,0,0.0822673,2922.96,824.419)">
            <path d="M1542.39,571.258L1565.23,606.126C1584.89,611.554 1603.42,620.476 1619.92,632.467L1661.42,628.579C1672.01,639.168 1681.38,650.913 1689.35,663.594L1676.32,703.186C1684.34,721.944 1688.91,741.993 1689.83,762.373L1718.74,792.393C1717.07,807.274 1713.72,821.921 1708.78,836.056L1669.7,850.558C1660.03,868.522 1647.21,884.6 1631.85,898.022L1626.41,939.345C1613.73,947.312 1600.19,953.831 1586.06,958.777L1550.36,937.268C1530.28,940.911 1509.72,940.911 1489.64,937.268L1453.94,958.777C1439.81,953.831 1426.27,947.312 1413.59,939.345L1408.15,898.022C1392.79,884.6 1379.97,868.522 1370.3,850.558L1331.22,836.056C1326.28,821.921 1322.93,807.274 1321.26,792.393L1350.17,762.373C1351.09,741.993 1355.66,721.944 1363.68,703.186L1350.65,663.594C1358.62,650.913 1367.99,639.168 1378.58,628.579L1420.08,632.467C1436.58,620.476 1455.11,611.554 1474.77,606.126L1497.61,571.258C1512.49,569.581 1527.51,569.581 1542.39,571.258ZM1520,720C1547.6,720 1570,742.404 1570,770C1570,797.596 1547.6,820 1520,820C1492.4,820 1470,797.596 1470,770C1470,742.404 1492.4,720 1520,720Z" style="fill:white;"/>
        </g>
    </g>
</svg>
